<svg version="1" xmlns="http://www.w3.org/2000/svg" width="3200" height="3200" viewBox="0 0 2400.000000 2400.000000"><path d="M1147.9 455.5c-.2.1-7.1.6-15.4 1-23.5 1-36.1 1.7-52.5 3-3 .3-8.6.7-12.5 1-3.8.3-8.8.8-11 1-2.2.2-6.7.7-10 1-5.9.5-13 1.3-19 2-1.6.2-5.5.7-8.5 1-3 .3-10.7 1.3-17 2.1-6.3.8-13.1 1.7-15 2-1.9.2-4.6.6-6 .9-1.4.2-4.5.7-7 1-2.5.3-7 1-10 1.5s-7.1 1.2-9 1.5c-1.9.3-4.6.7-6 1-1.4.3-4.1.7-6 1-4.4.7-9.9 1.6-12.5 2.2-1.1.2-3.8.6-6 .9-2.2.3-5.6 1-7.5 1.4-1.9.5-5.1 1.2-7 1.5-1.9.3-5.7 1-8.5 1.5-2.7.6-6.1 1.2-7.5 1.5-1.4.3-3.8.8-5.5 1.2-1.6.3-3.7.7-4.5.8-1.2.2-40.4 9.1-48 11-11.7 2.8-15 3.7-17.5 4.5-1.6.5-5.7 1.6-9 2.4-12 3-34.1 9.3-58 16.6-18 5.4-48.4 15.7-64 21.5-3.8 1.4-9.5 3.5-12.5 4.5-8.8 3-54.1 21.2-71.6 28.8C563.9 594 513.2 619 481 637.3c-1.9 1.1-5.8 3.2-8.5 4.7-2.8 1.4-6.1 3.3-7.5 4.2-1.4.8-12.4 7.4-24.5 14.7-28.9 17.4-55.6 34.6-75.5 48.6-8.6 6-17.4 12.3-18.5 13.2-.5.5-5 3.8-10 7.3-4.9 3.6-9.7 7-10.5 7.7-7.8 6.3-30 23.4-33.1 25.4-2.1 1.5-7.2 3.7-11.1 5-4 1.2-9.4 3.3-12 4.6-2.6 1.3-5 2.3-5.3 2.3-.3 0-5.6 2.4-11.8 5.4-29.6 14.2-55.8 32.8-79.1 56.1-14.7 14.6-19 19.6-29.3 33.7-15.4 21.2-28.4 46.2-35.9 68.8-3.5 10.4-7.3 24.1-8 28.7-.3 2.1-.7 4-.9 4.3-.5.8-3.5 22.2-4 28.1-.5 6.2-.6 33.7-.1 38.9 2.2 24.7 9.2 55.6 16.2 71.5.7 1.6 2.5 5.9 4 9.5 2.6 6.3 9.2 20 10.1 21 .3.3 119.4.5 264.8.5h264.4l3.2-6.5c16.2-32.5 25.5-65.5 27.4-97 2.9-47.4-5.8-90-27-132.2-7.9-15.7-22.2-37.8-30.6-47.3-8.3-9.4-12.9-14.9-12.9-15.5 0-.6 36-18.5 52.5-26 37.7-17.4 96.8-40.7 124.5-49.1 3.6-1.1 7.4-2.4 8.5-2.9 5.9-2.6 69.7-21.3 80.3-23.5.9-.2 6.4-1.5 12.2-2.9 10.5-2.6 34.3-8.1 39-8.9 1.4-.3 3.6-.8 5-1.1 1.4-.3 3.6-.8 5-1 2.2-.4 7.5-1.4 16-3.1 5.1-1 35.6-6.5 38.5-6.9 1.7-.2 5-.7 7.5-1.1 5.9-.9 8.2-1.2 16-2.4 3.6-.6 9-1.3 12-1.6 3-.3 7.1-.7 9-1 4.7-.6 10.4-1.3 17-2 3-.3 6.6-.8 8-1 1.4-.3 6.3-.7 11-1 4.7-.4 9.9-.8 11.5-1 6.5-.8 26.6-2.1 44.5-3 6.9-.3 16.8-.8 22-1.1 28.4-1.4 96.9-.3 130.6 2.1 4.3.3 10.8.8 14.4 1 8.4.6 18.5 1.5 23.5 2 2.2.2 8.7.9 14.5 1.5 5.8.6 12.1 1.3 14 1.5 1.9.3 5.3.7 7.5 1 9.6 1.1 13.6 1.7 23 3 12.5 1.8 27.9 4.2 32.5 5 1.9.4 5.9 1.1 8.8 1.6 10.6 1.8 15.9 2.8 26.2 4.9 5.8 1.1 11.9 2.3 13.5 2.6 1.7.3 3.6.7 4.4 1 .7.2 4.8 1.1 9 2 10.3 2.2 9.9 2.1 15.6 3.4 2.8.6 5.7 1.3 6.5 1.5 27 5.8 86 23.2 125.5 36.9 22 7.6 52.5 19.3 70 26.9 3.3 1.5 11.2 4.9 17.5 7.6 6.3 2.7 14.2 6.2 17.5 7.7 3.3 1.5 6.2 2.8 6.5 2.9.9.2 25 11.9 37.3 18 6.4 3.3 11.7 6.3 11.7 6.7 0 .4-1.4 2.2-3.1 4-7.2 7.7-28.9 36.3-28.9 38.2 0 .3-1.3 2.4-2.9 4.8-7.2 10.6-18.9 36.5-24.1 53.3-6 18.9-8.2 29.5-10.7 49.5-1 7.9-1.1 46.1-.1 54.5 3.2 29.4 13.6 63.6 26.9 88.5l2.9 5.5h264.4c145.5 0 264.6-.2 264.8-.5.2-.3 2.5-4.9 5.1-10.2 9.1-18.5 18.2-45.3 21.3-62.6 2.2-12.3 2.6-15.4 3.9-27.7.5-5 .6-33.6.1-39-1-10.6-2.5-21.5-3.7-28-.6-2.8-1.3-6.1-1.5-7.5-1.9-9.7-7.8-27.9-13.1-41-6.6-16-19.1-39.3-26.3-49-9.1-12.1-15.6-20.6-16.5-21.6-.5-.6-4.1-4.6-8-8.9-6-6.7-18.7-18.7-29.1-27.5-4.8-4.1-20.4-15.4-28.2-20.4-16.4-10.6-36.4-20.5-56.3-28.1-12-4.5-14.7-6-23-12.5-21.5-16.9-35.7-27.5-56.9-42.6-12.6-8.9-50.7-34.4-59.7-39.9-21.2-13-26.2-16-28.8-17.5-1.6-.9-8.4-4.9-15-8.7-45.7-26.4-90.7-49.1-142-71.5-59-25.7-123.3-48.5-187.5-66.4-13.1-3.7-30.4-8.4-33-8.9-.8-.2-8.2-2-16.5-4-29-6.9-37.5-8.8-66.5-14.6-2.5-.5-5.8-1.2-7.5-1.4-1.6-.3-4.1-.8-5.5-1-1.4-.3-3.6-.7-5-1-1.4-.3-3.6-.7-5-.9-1.4-.3-4.3-.8-6.5-1.1-2.2-.3-4.7-.7-5.5-1-.8-.2-3.3-.6-5.5-1-2.2-.3-8.3-1.2-13.5-2.1-5.2-.8-10.8-1.7-12.5-2-1.6-.2-9.5-1.3-17.5-2.4-14.2-1.9-16.3-2.2-28.5-3.5-3.3-.4-7.1-.8-8.5-1-1.4-.2-5.2-.7-8.5-1-3.3-.3-7.3-.8-9-1-1.6-.2-7-.7-12-1-4.9-.4-10.1-.8-11.5-1-2.2-.3-10.1-1-25-2-2.5-.2-10.3-.7-17.5-1-7.1-.4-15.2-.9-18-1.2-6.1-.5-122.1-1.3-122.6-.8z"/><path d="M1185.7 729.6c-.1.1-5.6.5-12.2.8-6.6.4-13.6.8-15.5 1-18.1 1.8-20.3 2.1-26 3.1-1.4.2-4.7.7-7.4 1-2.7.3-5.2.8-5.5.9-.3.2-2.8.7-5.6 1-2.7.4-6.6 1.1-8.5 1.6-1.9.5-5.1 1.2-7 1.5-1.9.3-4.3.8-5.2 1.1-.9.3-2.5.7-3.6.9-13 2.5-52.3 14.8-65.7 20.6-1.1.4-4.9 2-8.5 3.4-10.6 4.2-36.3 16.6-49.6 23.9-28 15.4-67.1 42.9-88.8 62.6-19.8 17.8-36.4 34.6-49.1 49.5-3.3 3.8-6.9 7.9-8 9-1.9 1.9-17.4 22-22 28.4-7.2 10-24.4 36.6-30.4 47.1-6.1 10.5-21.7 41.4-27.4 54-10.4 23.4-22.9 60.3-29.5 87.6-6.3 25.9-9.4 42.2-11.7 61.3-.4 3-.9 6.3-1.1 7.5-.2 1.2-.6 5.5-.9 9.6-.3 4.1-.8 8.8-1 10.5-2.4 16.5-2.4 76.5 0 95 .2 1.6.6 5.7.9 9 .3 3.3.8 8.5 1.2 11.5l.6 5.5-3.4 1.7c-10.1 4.8-31.8 23.9-43.1 37.8-15.1 18.8-28.2 46.1-32.2 67.8-1 5.1-2.5 14-3.1 18.7-.9 6.4-.9 321.6 0 331 .7 8.4 3 21.7 4.7 27.7.7 2.3 1.3 4.5 1.4 4.8 1.3 4.7 3 9.7 3.7 10.4.4.6.8 1.6.8 2.3 0 2.6 9.9 21.9 15.8 30.9 9.6 14.6 22.8 29 35.7 38.9 3.3 2.5 6.7 5.1 7.5 5.8 2.8 2.3 13.5 8.5 21.6 12.6 16.7 8.3 30.3 12.4 52.4 15.9 6.3 1 871.8.9 880.8-.1 4-.4 7.8-1 8.5-1.2.7-.3 2.3-.6 3.7-.9 15.4-2.6 39.4-12.3 55-22.4 38.7-25 64-62.1 73.5-108.3.8-3.8 1.5-9.2 2.1-15.6.9-9.4.9-320.9 0-330.7-1.3-14.9-6.2-34.9-11.4-46.6-10.7-24.4-22.3-41.4-38.3-56.4-8.6-8-24.1-20-29.2-22.6-3.1-1.5-3.1-1.4-1.2-16.7 3.8-29.7 3.7-86 0-116.8-.2-2.2-.7-6.3-1-9-.8-6.6-2.3-18.2-3-22-.3-1.7-1-5.9-1.6-9.5-.6-3.6-1.6-9.2-2.4-12.5-.7-3.3-2.1-9.6-3-14-7.6-34.8-25.6-87-39.2-113.4-1.8-3.5-3.3-6.8-3.3-7.3 0-.6-.9-2.3-2.1-3.9-1.1-1.6-2.2-3.6-2.3-4.4-.1-.9-.8-2.1-1.4-2.7-.7-.7-1.2-1.6-1.2-2 0-1-12.9-24.1-17.8-31.8-16.2-25.6-27.4-41.2-44.2-61.5-20.8-25.1-48.6-53-68.9-69.1-1.3-1-4-3.3-6-4.9-2-1.7-8.1-6.4-13.6-10.5s-10.1-7.8-10.3-8.3c-.2-.4-.8-.7-1.3-.7s-5.1-2.9-10.2-6.4c-38.9-26.8-86.5-49.1-138.2-64.6-16.5-5-52.9-12.5-70-14.4-2.7-.3-8.8-1-13.5-1.6-13.4-1.5-62.1-3.4-63.3-2.4zm43.3 161.3c15 1.7 17.8 2.1 29.5 4.6 16.2 3.5 35.2 9.2 48 14.5 7.5 3 34.2 16.7 40 20.4 8.2 5.3 20 13.4 22.5 15.6 1 .8 3.5 2.8 5.6 4.5 25.7 20.3 50.1 50.7 65.4 81.5 20.5 41.3 28.2 86.3 22.4 131-5.1 39.3-19.6 75.2-43.7 108.1-11.3 15.5-28.3 33.8-40.2 43.4-2.8 2.2-5.2 4.3-5.5 4.6-1.4 1.7-18.2 13.5-26.3 18.5-30.2 18.7-68.2 32.9-102.2 37.9-2.2.4-5.1.8-6.5 1.1-14.7 2.5-62.3 2.5-75.8-.1-1.1-.2-4.2-.7-6.9-1.1-2.6-.3-5.5-.8-6.3-.9-27.4-5.3-50.9-13.3-75.2-25.5-43.5-21.9-77.9-53.3-103.8-94.5-4.7-7.5-17-31.7-17-33.5 0-.5-.4-1.8-1-2.8-3.3-5.9-11.1-33.5-13-46.2-.6-4.1-1.3-8.6-1.6-10-.5-3.3-1.7-23.2-1.7-29.5 0-7.3 1.4-24.9 2.8-33.5 8.6-57 41.4-112.3 89.1-150.2 19.8-15.8 42.1-28.8 66.6-38.8 9.6-4 22.9-8.6 27.2-9.5 1-.3 4.2-1.1 7-1.9 9.3-2.6 19.5-4.7 30.1-6.2 2.8-.3 5.9-.8 7-1 1.1-.2 6.3-.7 11.5-1 5.2-.3 9.6-.7 9.8-.9.7-.6 33.7.4 42.2 1.4z"/></svg>